# xmcd CD database file
#
# Track frame offsets:
#	150
#	21907
#	39850
#	61527
#
# Disc length: 1057 seconds
#
# Revision: 0
# Processed by: cddbd v1.5PL3 Copyright (c) Steve Scherf et al.
# Submitted via: CDex 1.50
#
DISCID=22041f04
DTITLE=石井康嗣 - ふしぎ遊戯 Vo.コレクション8
DYEAR=1900
DGENRE=Anime
TTITLE0=左手の記憶
TTITLE1=空が見える
TTITLE2=左手の記憶(カラオケ)
TTITLE3=空が見える(カラオケ)
EXTD=
EXTT0=
EXTT1=
EXTT2=
EXTT3=
PLAYORDER=
